<svg viewBox="50 194.6931 314 138.9327" width="5000" height="2212.3041401273886" xmlns="http://www.w3.org/2000/svg" xmlns:xlink="http://www.w3.org/1999/xlink" preserveAspectRatio="none"><defs></defs><style>.companyName {fill:#F3F0ED;fill-opacity:1;}.icon1 {fill:#F3F0ED;fill-opacity:1;}.icon2 {fill:#F78531;fill-opacity:1;}.icon3 {fill:#ED4545;fill-opacity:1;}.icon3-str {stroke:#ED4545;stroke-opacity:1;}.icon4 {fill:#F3F0ED;fill-opacity:1;}.icon5 {fill:#F78531;fill-opacity:1;}.icon6 {fill:#ED4545;fill-opacity:1;}.icon7 {fill:#F3F0ED;fill-opacity:1;}.icon8 {fill:#F78531;fill-opacity:1;}</style><defs>
      <filter
        x="50"
        y="194.6931"
        width="314"
        height="138.9327"
        id="global"
        filterUnits="userSpaceOnUse"
        primitiveUnits="userSpaceOnUse"
        color-interpolation-filters="sRGB">
        <feColorMatrix
                        type="matrix"
                        values="0.3333 0.3333 0.3333 0 0 0.3333 0.3333 0.3333 0 0 0.3333 0.3333 0.3333 0 0 0 0 0 1 0"/><feColorMatrix
                        type="matrix"
                        values="-1 0 0 0 1 0 -1 0 0 1 0 0 -1 0 1 0 0 0 1 0"/>
      </filter></defs><defs></defs><g filter="url(#global)"><g opacity="1" transform="rotate(0 50 305.833)">
<svg width="185.4949" height="27.7928" x="50" y="305.833" version="1.1" preserveAspectRatio="none" viewBox="3.32 -28 186.88000000000002 28">
  <g transform="matrix(1 0 0 1 0 0)" class="companyName"><path id="id-D6z1nYkh6" d="M28.12 0L21.16 0L15.76-7.80L15.44-7.80L9.80-7.80L9.80 0L3.32 0L3.32-28L15.44-28Q19.16-28 21.90-26.76Q24.64-25.52 26.12-23.24Q27.60-20.96 27.60-17.84L27.60-17.84Q27.60-14.72 26.10-12.46Q24.60-10.20 21.84-9L21.84-9L28.12 0ZM21.04-17.84Q21.04-20.20 19.52-21.46Q18-22.72 15.08-22.72L15.08-22.72L9.80-22.72L9.80-12.96L15.08-12.96Q18-12.96 19.52-14.24Q21.04-15.52 21.04-17.84L21.04-17.84Z M53.64 0L51.16-6L38.16-6L35.68 0L29.04 0L41.52-28L47.92-28L60.44 0L53.64 0ZM40.24-10.92L49.12-10.92L44.68-21.64L40.24-10.92Z M82.56-28L89.04-28L89.04 0L82.56 0L82.56-11.48L69.84-11.48L69.84 0L63.36 0L63.36-28L69.84-28L69.84-16.96L82.56-16.96L82.56-28Z M127.24 0L121.16 0L121.12-16.80L112.88-2.96L109.96-2.96L101.76-16.44L101.76 0L95.68 0L95.68-28L101.04-28L111.52-10.60L121.84-28L127.16-28L127.24 0Z M154.80 0L152.32-6L139.32-6L136.84 0L130.20 0L142.68-28L149.08-28L161.60 0L154.80 0ZM141.40-10.92L150.28-10.92L145.84-21.64L141.40-10.92Z M183.80-28L190.20-28L190.20 0L184.88 0L170.92-17L170.92 0L164.52 0L164.52-28L169.88-28L183.80-11L183.80-28Z"/></g>
</svg>
</g><g opacity="1" transform="rotate(0 239.3858 305.833)">
<svg width="124.6142" height="27.7928" x="239.3858" y="305.833" version="1.1" preserveAspectRatio="none" viewBox="4.88 -28 126.44 28.2">
  <g transform="matrix(1 0 0 1 0 0)" class="companyName"><path id="id--VpF9B9iX5" d="M25.24 0L13.20-13.80L6.92-7.36L6.92 0L4.88 0L4.88-28L6.92-28L6.92-10L24.40-28L26.88-28L14.56-15.28L27.72 0L25.24 0Z M43.56 0.20Q38.24 0.20 35.30-2.88Q32.36-5.96 32.36-11.88L32.36-11.88L32.36-28L34.40-28L34.40-11.96Q34.40-6.80 36.76-4.24Q39.12-1.68 43.60-1.68L43.60-1.68Q48.04-1.68 50.40-4.24Q52.76-6.80 52.76-11.96L52.76-11.96L52.76-28L54.80-28L54.80-11.88Q54.80-5.96 51.84-2.88Q48.88 0.20 43.56 0.20L43.56 0.20Z M69.12 0L69.12-26.16L59.04-26.16L59.04-28L81.24-28L81.24-26.16L71.16-26.16L71.16 0L69.12 0Z M86.28 0L86.28-28L88.32-28L88.32-1.84L104.44-1.84L104.44 0L86.28 0Z M120.08 0.20Q114.76 0.20 111.82-2.88Q108.88-5.96 108.88-11.88L108.88-11.88L108.88-28L110.92-28L110.92-11.96Q110.92-6.80 113.28-4.24Q115.64-1.68 120.12-1.68L120.12-1.68Q124.56-1.68 126.92-4.24Q129.28-6.80 129.28-11.96L129.28-11.96L129.28-28L131.32-28L131.32-11.88Q131.32-5.96 128.36-2.88Q125.40 0.20 120.08 0.20L120.08 0.20Z"/></g>
</svg>
</g><g opacity="1" transform="rotate(0 126.8474 194.6931)">
<svg width="160.3053" height="102.5945" x="126.8474" y="194.6931" version="1.1" preserveAspectRatio="none" viewBox="15 45.5 170.00144958496094 108.8000030517578">
  <g transform="matrix(1 0 0 1 0 0)"><g><g><defs><path d="M174 45.5H64c-6 0-10.9 4.2-10.9 10.1v68.5c0 6 4.9 10.1 10.9 10.1h39.7l-.8 10.7-5.5 7H41.5c2.4-1.9 4-4.9 4-8.1v-3.1c.3.6.8.8 1.9.8 3.2 0 5.7-2.6 5.7-5.7s-2.6-5.7-5.7-5.7c-1.1 0-1.7.4-1.9.8v-10.5H17.6v23.3c0 3.2 1.5 6 3.7 8.1H15v2.5h165.5V152h-40.6l-5.7-7.2-1.6-10.5H174c6 0 11-4.2 11-10.1V55.6c.1-5.9-5-10.1-11-10.1zm-128.5 88c.6-.5 1.2-.7 1.9-.7 1.8 0 3.2 1.4 3.2 3.2s-1.4 3.2-3.2 3.2c-.7 0-1.4-.3-1.9-.7v-5zM34.9 152h-7.2c-4.2 0-7.5-3.9-7.5-8.1v-20.8h22.9v20.8c-.1 4.2-4 8.1-8.2 8.1zm101.2 0H101l3.6-5.1h27.8l3.7 5.1zm-30.7-7.6l.8-10.1H130l1.5 10.1h-26.1zm77.1-20.3c0 4.6-4 7.6-8.5 7.6H64c-4.5 0-8.3-3.1-8.3-7.6v-7.6h126.9v7.6h-.1zm0-10.2H55.6V55.6c0-4.5 3.7-7.6 8.3-7.6h110c4.5 0 8.5 3.1 8.5 7.6v58.3h.1z" data-color="1" id="id-a4Xc-FDCIl2"></path></defs><use class="icon1" xlink:href="#id-a4Xc-FDCIl2"></use></g><g><defs><path d="M119.1 128.4c2.8 0 5.1-2.2 5.1-5.1 0-2.8-2.3-5.1-5.1-5.1s-5.1 2.2-5.1 5.1c.1 2.8 2.3 5.1 5.1 5.1zm0-7.5c1.4 0 2.5 1.1 2.5 2.5s-1.1 2.5-2.5 2.5-2.5-1.1-2.5-2.5 1.1-2.5 2.5-2.5z" data-color="1" id="id-a4Xc-FDCIl3"></path></defs><use class="icon1" xlink:href="#id-a4Xc-FDCIl3"></use></g><g><defs><path d="M25.2 115.6c.7 0 1.3-.6 1.3-1.3v-7c0-.7-.6-1.3-1.3-1.3s-1.3.6-1.3 1.3v7c0 .7.6 1.3 1.3 1.3z" data-color="1" id="id-a4Xc-FDCIl4"></path></defs><use class="icon1" xlink:href="#id-a4Xc-FDCIl4"></use></g><g><defs><path d="M25.2 103.9c.7 0 1.3-.6 1.3-1.3v-1.9c0-.7-.6-1.3-1.3-1.3s-1.3.6-1.3 1.3v1.9c0 .7.6 1.3 1.3 1.3z" data-color="1" id="id-a4Xc-FDCIl5"></path></defs><use class="icon1" xlink:href="#id-a4Xc-FDCIl5"></use></g><g><defs><path d="M30.7 117.8c.7 0 1.3-.6 1.3-1.3v-13.9c0-.7-.6-1.3-1.3-1.3s-1.3.6-1.3 1.3v13.9c0 .6.5 1.3 1.3 1.3z" data-color="1" id="id-a4Xc-FDCIl6"></path></defs><use class="icon1" xlink:href="#id-a4Xc-FDCIl6"></use></g><g><defs><path d="M30.7 99.2c.7 0 1.3-.6 1.3-1.3V96c0-.7-.6-1.3-1.3-1.3s-1.3.6-1.3 1.3v1.9c0 .7.5 1.3 1.3 1.3z" data-color="1" id="id-a4Xc-FDCIl7"></path></defs><use class="icon1" xlink:href="#id-a4Xc-FDCIl7"></use></g><g><defs><path d="M36.1 115.6c.7 0 1.3-.6 1.3-1.3v-7c0-.7-.6-1.3-1.3-1.3s-1.3.6-1.3 1.3v7c0 .7.6 1.3 1.3 1.3z" data-color="1" id="id-a4Xc-FDCIl8"></path></defs><use class="icon1" xlink:href="#id-a4Xc-FDCIl8"></use></g><g><defs><path d="M36.1 103.9c.7 0 1.3-.6 1.3-1.3v-1.9c0-.7-.6-1.3-1.3-1.3s-1.3.6-1.3 1.3v1.9c0 .7.6 1.3 1.3 1.3z" data-color="1" id="id-a4Xc-FDCIl9"></path></defs><use class="icon1" xlink:href="#id-a4Xc-FDCIl9"></use></g></g></g>
</svg>
</g></g></svg>